# Blender v2.74 (sub 0) OBJ File: ''
# www.blender.org
mtllib untitled-scene.mtl
o default
v -5.986804 1.570538 -1.584437
v -5.986804 1.570538 1.810565
v 6.882683 1.570538 -1.584437
v -5.986804 1.570538 1.810565
v 6.882683 1.570538 1.810565
v 6.882683 1.570538 -1.584437
v -5.986804 1.570538 1.810565
v -5.986804 0.688486 1.810565
v 0.154030 0.668643 1.810565
v -5.986804 1.570538 1.810565
v 0.154030 0.668643 1.810565
v 6.882683 1.570538 1.810565
v -5.986804 0.688486 1.810565
v -5.986804 -0.154462 1.267749
v 5.159758 -0.154462 1.290943
v -5.986804 0.688486 1.810565
v 5.159758 -0.154462 1.290943
v -3.518869 0.680512 1.810565
v -5.986804 0.417698 -1.430871
v -5.986804 1.570538 -1.584437
v -5.986804 0.735378 -1.584437
v -5.986804 1.570538 -1.584437
v -5.986804 0.417698 -1.430871
v -5.986804 0.020999 -1.239109
v -5.986804 1.570538 -1.584437
v -5.986804 0.020999 -1.239109
v -5.986804 1.570538 1.810565
v -5.986804 -0.098762 -1.181217
v -5.986804 -0.154462 -1.154292
v -5.986804 -0.154462 1.267749
v -5.986804 -0.059106 -1.200387
v -5.986804 -0.098762 -1.181217
v -5.986804 -0.154462 1.267749
v -5.986804 -0.059106 -1.200387
v -5.986804 -0.154462 1.267749
v -5.986804 0.688486 1.810565
v -5.986804 -0.011472 -1.223413
v -5.986804 -0.059106 -1.200387
v -5.986804 0.688486 1.810565
v -5.986804 0.020999 -1.239109
v -5.986804 -0.011472 -1.223413
v -5.986804 0.688486 1.810565
v -5.986804 0.020999 -1.239109
v -5.986804 0.688486 1.810565
v -5.986804 1.570538 1.810565
v 4.065738 0.697681 -1.584437
v 6.882683 1.570538 -1.584437
v 6.882683 0.687118 -1.584437
v 6.882683 1.570538 -1.584437
v 4.065738 0.697681 -1.584437
v 0.423303 0.711340 -1.584437
v 6.882683 1.570538 -1.584437
v 0.423303 0.711340 -1.584437
v -5.986804 1.570538 -1.584437
v 0.423303 0.711340 -1.584437
v -5.986804 0.735378 -1.584437
v -5.986804 1.570538 -1.584437
v -5.040849 -0.154462 -1.156007
v -5.986804 -0.154462 1.267749
v -5.986804 -0.154462 -1.154292
v -5.986804 -0.154462 1.267749
v -5.040849 -0.154462 -1.156007
v -4.367377 -0.154462 -1.157228
v -5.986804 -0.154462 1.267749
v -4.367377 -0.154462 -1.157228
v 4.910980 -0.154462 1.290426
v -5.986804 -0.154462 -1.154292
v -5.986804 0.735378 -1.584437
v 3.797764 0.698686 -1.584437
v -5.986804 -0.154462 -1.154292
v 3.797764 0.698686 -1.584437
v -4.186499 -0.154462 -1.157555
v -4.186499 -0.154462 -1.157555
v 3.797764 0.698686 -1.584437
v 6.882683 0.687118 -1.584437
v 6.882683 0.680788 1.584074
v 6.882683 1.570538 1.810565
v 6.882683 0.680788 1.810565
v 6.882683 1.570538 1.810565
v 6.882683 0.680788 1.584074
v 6.882683 0.680788 0.166695
v 6.882683 1.570538 1.810565
v 6.882683 0.680788 0.166695
v 6.882683 1.570538 -1.584437
v 6.882683 0.680788 -1.554892
v 6.882683 0.680788 -1.581377
v 6.882683 0.687118 -1.584437
v 6.882683 0.680788 0.166695
v 6.882683 0.680788 -1.554892
v 6.882683 0.687118 -1.584437
v 6.882683 0.680788 0.166695
v 6.882683 0.687118 -1.584437
v 6.882683 1.570538 -1.584437
v 0.154030 0.668643 1.810565
v 6.837375 0.647047 1.810565
v 6.882683 0.680788 1.810565
v 0.154030 0.668643 1.810565
v 6.882683 0.680788 1.810565
v 6.882683 1.570538 1.810565
v 5.870256 -0.073191 1.344756
v -3.518869 0.680512 1.810565
v 5.159758 -0.154462 1.290943
v 5.870256 -0.073191 1.344756
v 5.159758 -0.154462 1.290943
v 5.761127 -0.154462 1.292194
v 6.837375 0.647047 1.810565
v -3.518869 0.680512 1.810565
v 5.870256 -0.073191 1.344756
v 5.761127 -0.154462 -1.175588
v 5.761127 -0.154462 0.050860
v 4.910980 -0.154462 1.290426
v 5.761127 -0.154462 -1.175588
v 4.910980 -0.154462 1.290426
v -4.367377 -0.154462 -1.157228
v 5.761127 -0.154462 0.156388
v 4.910980 -0.154462 1.290426
v 5.761127 -0.154462 0.050860
v 5.761127 -0.154462 0.226269
v 4.910980 -0.154462 1.290426
v 5.761127 -0.154462 0.156388
v 5.761127 -0.154462 1.292194
v 4.910980 -0.154462 1.290426
v 5.761127 -0.154462 0.226269
v 5.761127 -0.154462 -1.175588
v -4.186499 -0.154462 -1.157555
v 6.882683 0.687118 -1.584437
v 5.761127 -0.154462 -1.175588
v 6.882683 0.687118 -1.584437
v 6.882683 0.680788 -1.581377
v 6.882683 0.680788 -1.581377
v 6.882683 0.680788 1.337361
v 5.831701 -0.101903 -1.201122
v 5.761127 -0.154462 -1.175588
v 5.831701 -0.101903 -1.201122
v 6.882683 0.680788 1.337361
v 5.761127 -0.154462 -1.175588
v 6.882683 0.680788 1.337361
v 6.882683 0.680788 1.810565
v 5.761127 -0.154462 -1.175588
v 6.882683 0.680788 1.810565
v 6.837375 0.647047 1.810565
v 5.761127 -0.154462 -1.175588
v 6.837375 0.647047 1.810565
v 5.761127 -0.154462 1.292194
v -3.752099 3.162412 0.636746
v -3.413278 3.162412 0.610316
v -3.107623 3.162412 0.533614
v -2.865054 3.162412 0.414148
v -2.709315 3.162412 0.263611
v -2.655651 3.162412 0.096741
v -2.709315 3.162412 -0.070130
v -2.865054 3.162412 -0.220666
v -3.107623 3.162412 -0.340132
v -3.413278 3.162412 -0.416834
v -3.752099 3.162412 -0.443264
v -4.090920 3.162412 -0.416834
v -4.396575 3.162412 -0.340132
v -4.639144 3.162412 -0.220666
v -4.794883 3.162412 -0.070130
v -4.848547 3.162412 0.096741
v -4.794883 3.162412 0.263611
v -4.639144 3.162412 0.414148
v -4.396575 3.162412 0.533614
v -4.090920 3.162412 0.610316
v -3.752099 3.162412 0.636746
v -3.752099 2.737400 0.636746
v -3.413278 2.737400 0.610316
v -3.107623 2.737400 0.533614
v -2.865054 2.737400 0.414148
v -2.709315 2.737400 0.263611
v -2.655651 2.737400 0.096741
v -2.709315 2.737400 -0.070130
v -2.865054 2.737400 -0.220666
v -3.107623 2.737400 -0.340132
v -3.413278 2.737400 -0.416834
v -3.752099 2.737400 -0.443264
v -4.090920 2.737400 -0.416834
v -4.396575 2.737400 -0.340132
v -4.639144 2.737400 -0.220666
v -4.794883 2.737400 -0.070130
v -4.848547 2.737400 0.096741
v -4.794883 2.737400 0.263611
v -4.639144 2.737400 0.414148
v -4.396575 2.737400 0.533614
v -4.090920 2.737400 0.610316
v -3.752099 2.737400 0.636746
v -3.752099 2.312387 0.636746
v -3.413278 2.312387 0.610316
v -3.107623 2.312387 0.533614
v -2.865054 2.312387 0.414148
v -2.709315 2.312387 0.263611
v -2.655651 2.312387 0.096741
v -2.709315 2.312387 -0.070130
v -2.865054 2.312387 -0.220666
v -3.107623 2.312387 -0.340132
v -3.413278 2.312387 -0.416834
v -3.752099 2.312387 -0.443264
v -4.090920 2.312387 -0.416834
v -4.396575 2.312387 -0.340132
v -4.639144 2.312387 -0.220666
v -4.794883 2.312387 -0.070130
v -4.848547 2.312387 0.096741
v -4.794883 2.312387 0.263611
v -4.639144 2.312387 0.414148
v -4.396575 2.312387 0.533614
v -4.090920 2.312387 0.610316
v -3.752099 2.312387 0.636746
v -3.752099 1.887375 0.636746
v -3.413278 1.887375 0.610316
v -3.107623 1.887375 0.533614
v -2.865054 1.887375 0.414148
v -2.709315 1.887375 0.263611
v -2.655651 1.887375 0.096741
v -2.709315 1.887375 -0.070130
v -2.865054 1.887375 -0.220666
v -3.107623 1.887375 -0.340132
v -3.413278 1.887375 -0.416834
v -3.752099 1.887375 -0.443264
v -4.090920 1.887375 -0.416834
v -4.396575 1.887375 -0.340132
v -4.639144 1.887375 -0.220666
v -4.794883 1.887375 -0.070130
v -4.848547 1.887375 0.096741
v -4.794883 1.887375 0.263611
v -4.639144 1.887375 0.414148
v -4.396575 1.887375 0.533614
v -4.090920 1.887375 0.610316
v -3.752099 1.887375 0.636746
v -3.752099 1.462363 0.636746
v -3.413278 1.462363 0.610316
v -3.107623 1.462363 0.533614
v -2.865054 1.462363 0.414148
v -2.709315 1.462363 0.263611
v -2.655651 1.462363 0.096741
v -2.709315 1.462363 -0.070130
v -2.865054 1.462363 -0.220666
v -3.107623 1.462363 -0.340132
v -3.413278 1.462363 -0.416834
v -3.752099 1.462363 -0.443264
v -4.090920 1.462363 -0.416834
v -4.396575 1.462363 -0.340132
v -4.639144 1.462363 -0.220666
v -4.794883 1.462363 -0.070130
v -4.848547 1.462363 0.096741
v -4.794883 1.462363 0.263611
v -4.639144 1.462363 0.414148
v -4.396575 1.462363 0.533614
v -4.090920 1.462363 0.610316
v -3.752099 1.462363 0.636746
v -3.752099 3.162412 0.096741
v -3.752099 3.162412 0.096741
v -3.752099 3.162412 0.096741
v -3.752099 3.162412 0.096741
v -3.752099 3.162412 0.096741
v -3.752099 3.162412 0.096741
v -3.752099 3.162412 0.096741
v -3.752099 3.162412 0.096741
v -3.752099 3.162412 0.096741
v -3.752099 3.162412 0.096741
v -3.752099 3.162412 0.096741
v -3.752099 3.162412 0.096741
v -3.752099 3.162412 0.096741
v -3.752099 3.162412 0.096741
v -3.752099 3.162412 0.096741
v -3.752099 3.162412 0.096741
v -3.752099 3.162412 0.096741
v -3.752099 3.162412 0.096741
v -3.752099 3.162412 0.096741
v -3.752099 3.162412 0.096741
v -3.752099 3.162412 0.636746
v -3.413278 3.162412 0.610316
v -3.107623 3.162412 0.533614
v -2.865054 3.162412 0.414148
v -2.709315 3.162412 0.263611
v -2.655651 3.162412 0.096741
v -2.709315 3.162412 -0.070130
v -2.865054 3.162412 -0.220666
v -3.107623 3.162412 -0.340132
v -3.413278 3.162412 -0.416834
v -3.752099 3.162412 -0.443264
v -4.090920 3.162412 -0.416834
v -4.396575 3.162412 -0.340132
v -4.639144 3.162412 -0.220666
v -4.794883 3.162412 -0.070130
v -4.848547 3.162412 0.096741
v -4.794883 3.162412 0.263611
v -4.639144 3.162412 0.414148
v -4.396575 3.162412 0.533614
v -4.090920 3.162412 0.610316
v -3.752099 3.162412 0.636746
v -3.752099 1.462363 0.096741
v -3.752099 1.462363 0.096741
v -3.752099 1.462363 0.096741
v -3.752099 1.462363 0.096741
v -3.752099 1.462363 0.096741
v -3.752099 1.462363 0.096741
v -3.752099 1.462363 0.096741
v -3.752099 1.462363 0.096741
v -3.752099 1.462363 0.096741
v -3.752099 1.462363 0.096741
v -3.752099 1.462363 0.096741
v -3.752099 1.462363 0.096741
v -3.752099 1.462363 0.096741
v -3.752099 1.462363 0.096741
v -3.752099 1.462363 0.096741
v -3.752099 1.462363 0.096741
v -3.752099 1.462363 0.096741
v -3.752099 1.462363 0.096741
v -3.752099 1.462363 0.096741
v -3.752099 1.462363 0.096741
v -3.752099 1.462363 0.636746
v -3.413278 1.462363 0.610316
v -3.107623 1.462363 0.533614
v -2.865054 1.462363 0.414148
v -2.709315 1.462363 0.263611
v -2.655651 1.462363 0.096741
v -2.709315 1.462363 -0.070130
v -2.865054 1.462363 -0.220666
v -3.107623 1.462363 -0.340132
v -3.413278 1.462363 -0.416834
v -3.752099 1.462363 -0.443264
v -4.090920 1.462363 -0.416834
v -4.396575 1.462363 -0.340132
v -4.639144 1.462363 -0.220666
v -4.794883 1.462363 -0.070130
v -4.848547 1.462363 0.096741
v -4.794883 1.462363 0.263611
v -4.639144 1.462363 0.414148
v -4.396575 1.462363 0.533614
v -4.090920 1.462363 0.610316
v -3.752099 1.462363 0.636746
vt 0.000000 1.000000
vt 0.000000 0.000000
vt 1.000000 1.000000
vt 1.000000 0.000000
vt 0.000000 0.488666
vt 0.477162 0.477162
vt 0.098340 0.275775
vt 0.099516 0.928763
vt 0.853079 0.853079
vt 0.265196 0.265196
vt 0.045233 0.331687
vt 0.000000 0.515849
vt 0.101716 0.101716
vt 0.118768 0.032290
vt 0.126699 0.000000
vt 0.840113 0.000000
vt 0.113122 0.055279
vt 1.000000 0.488666
vt 0.106340 0.082892
vt 0.218886 0.493996
vt 0.000000 0.487872
vt 0.501914 0.501914
vt 1.000000 0.515849
vt 0.073504 0.126194
vt 0.000000 0.840113
vt 0.000000 0.126699
vt 0.125835 0.125835
vt 0.846792 0.846792
vt 0.098253 0.227837
vt 0.099335 0.828332
vt 0.760819 0.760819
vt 0.219971 0.219971
vt 0.969374 0.739533
vt 0.066713 0.484203
vt 0.000000 0.484203
vt 0.484203 0.484203
vt 0.991298 0.484203
vt 0.999099 0.484203
vt 1.000000 0.487872
vt 0.996479 0.464643
vt 1.000000 0.484203
vt 0.900999 0.785298
vt 0.893735 0.848996
vt 0.965376 0.220802
vt 0.912852 0.120427
vt 0.912852 0.481678
vt 0.912852 0.512761
vt 0.912852 0.533344
vt 0.912852 0.847314
vt 0.892524 0.176507
vt 0.969366 0.735262
vt 0.023072 0.824922
vt 0.824922 0.824922
vt 0.127537 0.127537
vt 0.134552 0.080707
vt 0.954924 0.824922
vt 0.954924 0.794859
vt 0.812514 0.080707
vt 0.000000 0.750000
vt 0.050000 1.000000
vt 0.050000 0.750000
vt 0.000000 0.500000
vt 0.050000 0.500000
vt 0.000000 0.250000
vt 0.050000 0.250000
vt 0.050000 0.000000
vt 0.100000 1.000000
vt 0.100000 0.750000
vt 0.100000 0.500000
vt 0.100000 0.250000
vt 0.100000 0.000000
vt 0.150000 1.000000
vt 0.150000 0.750000
vt 0.150000 0.500000
vt 0.150000 0.250000
vt 0.150000 0.000000
vt 0.200000 1.000000
vt 0.200000 0.750000
vt 0.200000 0.500000
vt 0.200000 0.250000
vt 0.200000 0.000000
vt 0.250000 1.000000
vt 0.250000 0.750000
vt 0.250000 0.500000
vt 0.250000 0.250000
vt 0.250000 0.000000
vt 0.300000 1.000000
vt 0.300000 0.750000
vt 0.300000 0.500000
vt 0.300000 0.250000
vt 0.300000 0.000000
vt 0.350000 1.000000
vt 0.350000 0.750000
vt 0.350000 0.500000
vt 0.350000 0.250000
vt 0.350000 0.000000
vt 0.400000 1.000000
vt 0.400000 0.750000
vt 0.400000 0.500000
vt 0.400000 0.250000
vt 0.400000 0.000000
vt 0.450000 1.000000
vt 0.450000 0.750000
vt 0.450000 0.500000
vt 0.450000 0.250000
vt 0.450000 0.000000
vt 0.500000 1.000000
vt 0.500000 0.750000
vt 0.500000 0.500000
vt 0.500000 0.250000
vt 0.500000 0.000000
vt 0.550000 1.000000
vt 0.550000 0.750000
vt 0.550000 0.500000
vt 0.550000 0.250000
vt 0.550000 0.000000
vt 0.600000 1.000000
vt 0.600000 0.750000
vt 0.600000 0.500000
vt 0.600000 0.250000
vt 0.600000 0.000000
vt 0.650000 1.000000
vt 0.650000 0.750000
vt 0.650000 0.500000
vt 0.650000 0.250000
vt 0.650000 0.000000
vt 0.700000 1.000000
vt 0.700000 0.750000
vt 0.700000 0.500000
vt 0.700000 0.250000
vt 0.700000 0.000000
vt 0.750000 1.000000
vt 0.750000 0.750000
vt 0.750000 0.500000
vt 0.750000 0.250000
vt 0.750000 0.000000
vt 0.800000 1.000000
vt 0.800000 0.750000
vt 0.800000 0.500000
vt 0.800000 0.250000
vt 0.800000 0.000000
vt 0.850000 1.000000
vt 0.850000 0.750000
vt 0.850000 0.500000
vt 0.850000 0.250000
vt 0.850000 0.000000
vt 0.900000 1.000000
vt 0.900000 0.750000
vt 0.900000 0.500000
vt 0.900000 0.250000
vt 0.900000 0.000000
vt 0.950000 1.000000
vt 0.950000 0.750000
vt 0.950000 0.500000
vt 0.950000 0.250000
vt 0.950000 0.000000
vt 1.000000 0.750000
vt 1.000000 0.500000
vt 1.000000 0.250000
vt 0.975528 0.654508
vt 0.904508 0.793893
vt 0.793893 0.904508
vt 0.654508 0.975528
vt 0.345491 0.975528
vt 0.206107 0.904508
vt 0.095492 0.793893
vt 0.024472 0.654508
vt 0.024472 0.345491
vt 0.095492 0.206107
vt 0.206107 0.095492
vt 0.345491 0.024472
vt 0.654508 0.024472
vt 0.793893 0.095492
vt 0.904508 0.206107
vt 0.975528 0.345491
vn 0.000000 1.000000 0.000000
vn 0.000000 0.000000 1.000000
vn -0.001700 -0.541400 0.840800
vn -1.000000 0.000000 0.000000
vn 0.000000 0.000000 -1.000000
vn 0.000000 -1.000000 0.000000
vn -0.001600 -0.435200 -0.900300
vn 1.000000 0.000000 0.000000
vn 1.000000 -0.000100 0.000000
vn 1.000000 0.000100 0.000000
vn 0.597300 -0.802000 0.000000
vn -0.075700 -0.000000 0.997100
vn 0.160800 0.000000 0.987000
vn 0.160700 -0.000000 0.987000
vn 0.344000 0.000000 0.939000
vn 0.343900 -0.000000 0.939000
vn 0.344100 -0.000000 0.938900
vn 0.574900 0.000000 0.818200
vn 0.574800 -0.000000 0.818300
vn 0.849000 0.000000 0.528400
vn 0.848700 -0.000000 -0.528900
vn 0.849000 0.000000 -0.528400
vn 0.848800 -0.000000 -0.528700
vn 0.848800 0.000000 -0.528800
vn 0.574900 -0.000000 -0.818200
vn 0.344100 -0.000000 -0.938900
vn 0.344000 -0.000000 -0.939000
vn 0.160700 -0.000000 -0.987000
vn 0.160800 -0.000000 -0.987000
vn 0.161200 0.000000 -0.986900
vn -0.160700 0.000000 -0.987000
vn -0.160800 -0.000000 -0.987000
vn -0.344100 0.000000 -0.938900
vn -0.343900 -0.000000 -0.939000
vn -0.344000 -0.000000 -0.939000
vn -0.574900 0.000000 -0.818200
vn -0.574800 -0.000000 -0.818300
vn -0.848700 0.000000 -0.528900
vn -0.849000 0.000000 -0.528400
vn -0.848800 -0.000000 -0.528700
vn -0.849000 0.000000 0.528400
vn -0.848800 -0.000000 0.528700
vn -0.848600 0.000000 0.529000
vn -0.574900 -0.000000 0.818200
vn -0.574800 -0.000000 0.818300
vn -0.344100 0.000000 0.938900
vn -0.344000 -0.000000 0.939000
vn -0.343900 -0.000000 0.939000
vn -0.160700 -0.000000 0.987000
vn -0.160800 -0.000000 0.987000
vn 0.075700 -0.000000 0.997100
usemtl defaultMat
s 1
f 1/1/1 2/2/1 3/3/1
f 4/2/1 5/4/1 6/3/1
f 7/1/2 8/5/2 9/6/2
f 10/1/2 11/6/2 12/3/2
f 13/7/3 14/8/3 15/9/3
f 16/7/3 17/9/3 18/10/3
f 19/11/4 20/1/4 21/12/4
f 22/1/4 23/11/4 24/13/4
f 25/1/4 26/13/4 27/3/4
f 28/14/4 29/15/4 30/16/4
f 31/17/4 32/14/4 33/16/4
f 34/17/4 35/16/4 36/18/4
f 37/19/4 38/17/4 39/18/4
f 40/13/4 41/19/4 42/18/4
f 43/13/4 44/18/4 45/3/4
f 46/20/5 47/1/5 48/21/5
f 49/1/5 50/20/5 51/22/5
f 52/1/5 53/22/5 54/3/5
f 55/22/5 56/23/5 57/3/5
f 58/24/6 59/25/6 60/26/6
f 61/25/6 62/24/6 63/27/6
f 64/25/6 65/27/6 66/28/6
f 67/29/7 68/30/7 69/31/7
f 70/29/7 71/31/7 72/32/7
f 73/32/7 74/31/7 75/33/7
f 76/34/8 77/1/8 78/35/8
f 79/1/8 80/34/8 81/36/8
f 82/1/8 83/36/8 84/3/8
f 85/37/9 86/38/9 87/39/9
f 88/36/10 89/37/10 90/39/10
f 91/36/8 92/39/8 93/3/8
f 94/6/2 95/40/2 96/41/2
f 97/6/2 98/41/2 99/3/2
f 100/42/3 101/10/3 102/9/3
f 103/42/3 104/9/3 105/43/3
f 106/44/3 107/10/3 108/42/3
f 109/45/6 110/46/6 111/28/6
f 112/45/6 113/28/6 114/27/6
f 115/47/6 116/28/6 117/46/6
f 118/48/6 119/28/6 120/47/6
f 121/49/6 122/28/6 123/48/6
f 124/50/7 125/32/7 126/33/7
f 127/50/7 128/33/7 129/51/7
f 130/52/11 131/53/11 132/54/11
f 133/55/11 134/54/11 135/53/11
f 136/55/11 137/53/11 138/56/11
f 139/55/11 140/56/11 141/57/11
f 142/55/11 143/57/11 144/58/11
f 145/1/12 166/59/12 146/60/13
f 166/59/12 167/61/14 146/60/13
f 166/59/12 187/62/12 167/61/14
f 187/62/12 188/63/13 167/61/14
f 187/62/12 208/64/12 188/63/13
f 208/64/12 209/65/13 188/63/13
f 208/64/12 229/2/12 209/65/13
f 229/2/12 230/66/13 209/65/13
f 146/60/13 167/61/14 147/67/15
f 167/61/14 168/68/15 147/67/15
f 167/61/14 188/63/13 168/68/15
f 188/63/13 189/69/16 168/68/15
f 188/63/13 209/65/13 189/69/16
f 209/65/13 210/70/17 189/69/16
f 209/65/13 230/66/13 210/70/17
f 230/66/13 231/71/17 210/70/17
f 147/67/15 168/68/15 148/72/18
f 168/68/15 169/73/19 148/72/18
f 168/68/15 189/69/16 169/73/19
f 189/69/16 190/74/19 169/73/19
f 189/69/16 210/70/17 190/74/19
f 210/70/17 211/75/19 190/74/19
f 210/70/17 231/71/17 211/75/19
f 231/71/17 232/76/18 211/75/19
f 148/72/18 169/73/19 149/77/20
f 169/73/19 170/78/20 149/77/20
f 169/73/19 190/74/19 170/78/20
f 190/74/19 191/79/20 170/78/20
f 190/74/19 211/75/19 191/79/20
f 211/75/19 212/80/20 191/79/20
f 211/75/19 232/76/18 212/80/20
f 232/76/18 233/81/20 212/80/20
f 149/77/20 170/78/20 150/82/8
f 170/78/20 171/83/8 150/82/8
f 170/78/20 191/79/20 171/83/8
f 191/79/20 192/84/8 171/83/8
f 191/79/20 212/80/20 192/84/8
f 212/80/20 213/85/8 192/84/8
f 212/80/20 233/81/20 213/85/8
f 233/81/20 234/86/8 213/85/8
f 150/82/8 171/83/8 151/87/21
f 171/83/8 172/88/22 151/87/21
f 171/83/8 192/84/8 172/88/22
f 192/84/8 193/89/23 172/88/22
f 192/84/8 213/85/8 193/89/23
f 213/85/8 214/90/22 193/89/23
f 213/85/8 234/86/8 214/90/22
f 234/86/8 235/91/24 214/90/22
f 151/87/21 172/88/22 152/92/25
f 172/88/22 173/93/25 152/92/25
f 172/88/22 193/89/23 173/93/25
f 193/89/23 194/94/25 173/93/25
f 193/89/23 214/90/22 194/94/25
f 214/90/22 215/95/25 194/94/25
f 214/90/22 235/91/24 215/95/25
f 235/91/24 236/96/25 215/95/25
f 152/92/25 173/93/25 153/97/26
f 173/93/25 174/98/27 153/97/26
f 173/93/25 194/94/25 174/98/27
f 194/94/25 195/99/27 174/98/27
f 194/94/25 215/95/25 195/99/27
f 215/95/25 216/100/26 195/99/27
f 215/95/25 236/96/25 216/100/26
f 236/96/25 237/101/26 216/100/26
f 153/97/26 174/98/27 154/102/28
f 174/98/27 175/103/29 154/102/28
f 174/98/27 195/99/27 175/103/29
f 195/99/27 196/104/29 175/103/29
f 195/99/27 216/100/26 196/104/29
f 216/100/26 217/105/30 196/104/29
f 216/100/26 237/101/26 217/105/30
f 237/101/26 238/106/28 217/105/30
f 154/102/28 175/103/29 155/107/5
f 175/103/29 176/108/5 155/107/5
f 175/103/29 196/104/29 176/108/5
f 196/104/29 197/109/5 176/108/5
f 196/104/29 217/105/30 197/109/5
f 217/105/30 218/110/5 197/109/5
f 217/105/30 238/106/28 218/110/5
f 238/106/28 239/111/5 218/110/5
f 155/107/5 176/108/5 156/112/31
f 176/108/5 177/113/32 156/112/31
f 176/108/5 197/109/5 177/113/32
f 197/109/5 198/114/31 177/113/32
f 197/109/5 218/110/5 198/114/31
f 218/110/5 219/115/31 198/114/31
f 218/110/5 239/111/5 219/115/31
f 239/111/5 240/116/31 219/115/31
f 156/112/31 177/113/32 157/117/33
f 177/113/32 178/118/33 157/117/33
f 177/113/32 198/114/31 178/118/33
f 198/114/31 199/119/34 178/118/33
f 198/114/31 219/115/31 199/119/34
f 219/115/31 220/120/35 199/119/34
f 219/115/31 240/116/31 220/120/35
f 240/116/31 241/121/33 220/120/35
f 157/117/33 178/118/33 158/122/36
f 178/118/33 179/123/37 158/122/36
f 178/118/33 199/119/34 179/123/37
f 199/119/34 200/124/37 179/123/37
f 199/119/34 220/120/35 200/124/37
f 220/120/35 221/125/37 200/124/37
f 220/120/35 241/121/33 221/125/37
f 241/121/33 242/126/36 221/125/37
f 158/122/36 179/123/37 159/127/38
f 179/123/37 180/128/39 159/127/38
f 179/123/37 200/124/37 180/128/39
f 200/124/37 201/129/39 180/128/39
f 200/124/37 221/125/37 201/129/39
f 221/125/37 222/130/40 201/129/39
f 221/125/37 242/126/36 222/130/40
f 242/126/36 243/131/39 222/130/40
f 159/127/38 180/128/39 160/132/4
f 180/128/39 181/133/4 160/132/4
f 180/128/39 201/129/39 181/133/4
f 201/129/39 202/134/4 181/133/4
f 201/129/39 222/130/40 202/134/4
f 222/130/40 223/135/4 202/134/4
f 222/130/40 243/131/39 223/135/4
f 243/131/39 244/136/4 223/135/4
f 160/132/4 181/133/4 161/137/41
f 181/133/4 182/138/41 161/137/41
f 181/133/4 202/134/4 182/138/41
f 202/134/4 203/139/41 182/138/41
f 202/134/4 223/135/4 203/139/41
f 223/135/4 224/140/42 203/139/41
f 223/135/4 244/136/4 224/140/42
f 244/136/4 245/141/43 224/140/42
f 161/137/41 182/138/41 162/142/44
f 182/138/41 183/143/44 162/142/44
f 182/138/41 203/139/41 183/143/44
f 203/139/41 204/144/44 183/143/44
f 203/139/41 224/140/42 204/144/44
f 224/140/42 225/145/45 204/144/44
f 224/140/42 245/141/43 225/145/45
f 245/141/43 246/146/45 225/145/45
f 162/142/44 183/143/44 163/147/46
f 183/143/44 184/148/46 163/147/46
f 183/143/44 204/144/44 184/148/46
f 204/144/44 205/149/47 184/148/46
f 204/144/44 225/145/45 205/149/47
f 225/145/45 226/150/48 205/149/47
f 225/145/45 246/146/45 226/150/48
f 246/146/45 247/151/48 226/150/48
f 163/147/46 184/148/46 164/152/49
f 184/148/46 185/153/50 164/152/49
f 184/148/46 205/149/47 185/153/50
f 205/149/47 206/154/49 185/153/50
f 205/149/47 226/150/48 206/154/49
f 226/150/48 227/155/50 206/154/49
f 226/150/48 247/151/48 227/155/50
f 247/151/48 248/156/49 227/155/50
f 164/152/49 185/153/50 165/3/51
f 185/153/50 186/157/51 165/3/51
f 185/153/50 206/154/49 186/157/51
f 206/154/49 207/158/51 186/157/51
f 206/154/49 227/155/50 207/158/51
f 227/155/50 228/159/51 207/158/51
f 227/155/50 248/156/49 228/159/51
f 248/156/49 249/4/51 228/159/51
f 270/158/1 271/160/1 250/109/1
f 271/160/1 272/161/1 251/109/1
f 272/161/1 273/162/1 252/109/1
f 273/162/1 274/163/1 253/109/1
f 274/163/1 275/107/1 254/109/1
f 275/107/1 276/164/1 255/109/1
f 276/164/1 277/165/1 256/109/1
f 277/165/1 278/166/1 257/109/1
f 278/166/1 279/167/1 258/109/1
f 279/167/1 280/62/1 259/109/1
f 280/62/1 281/168/1 260/109/1
f 281/168/1 282/169/1 261/109/1
f 282/169/1 283/170/1 262/109/1
f 283/170/1 284/171/1 263/109/1
f 284/171/1 285/111/1 264/109/1
f 285/111/1 286/172/1 265/109/1
f 286/172/1 287/173/1 266/109/1
f 287/173/1 288/174/1 267/109/1
f 288/174/1 289/175/1 268/109/1
f 289/175/1 290/158/1 269/109/1
f 312/175/6 311/158/6 291/109/6
f 313/174/6 312/175/6 292/109/6
f 314/173/6 313/174/6 293/109/6
f 315/172/6 314/173/6 294/109/6
f 316/111/6 315/172/6 295/109/6
f 317/171/6 316/111/6 296/109/6
f 318/170/6 317/171/6 297/109/6
f 319/169/6 318/170/6 298/109/6
f 320/168/6 319/169/6 299/109/6
f 321/62/6 320/168/6 300/109/6
f 322/167/6 321/62/6 301/109/6
f 323/166/6 322/167/6 302/109/6
f 324/165/6 323/166/6 303/109/6
f 325/164/6 324/165/6 304/109/6
f 326/107/6 325/164/6 305/109/6
f 327/163/6 326/107/6 306/109/6
f 328/162/6 327/163/6 307/109/6
f 329/161/6 328/162/6 308/109/6
f 330/160/6 329/161/6 309/109/6
f 331/158/6 330/160/6 310/109/6
